<svg xmlns="http://www.w3.org/2000/svg"  viewBox="0 0 40 40" width="60px" height="60px"><path fill="#8bb7f0" d="M4,31.5c-1.378,0-2.5-1.122-2.5-2.5V9c0-1.378,1.122-2.5,2.5-2.5h32c1.378,0,2.5,1.122,2.5,2.5v20 c0,1.378-1.122,2.5-2.5,2.5H4z"/><path fill="#4e7ab5" d="M36,7c1.103,0,2,0.897,2,2v20c0,1.103-0.897,2-2,2H4c-1.103,0-2-0.897-2-2V9c0-1.103,0.897-2,2-2H36 M36,6H4C2.343,6,1,7.343,1,9v20c0,1.657,1.343,3,3,3h32c1.657,0,3-1.343,3-3V9C39,7.343,37.657,6,36,6L36,6z"/><path fill="#fff" d="M18.255 16l-2.113 4.683L14.039 16h-2.695v6.726L8.341 16H6.067L3 22.981h1.815l.671-1.558h3.432L9.6 22.981h3.465v-5.185l2.299 5.185h1.563l2.351-5.095v5.095H21V16H18.255zM6.135 19.915l1.026-2.44 1.066 2.44H6.135zM33.883 19.413L37 16.018h-2.217l-1.994 2.164L30.86 16H24v6.982h6.635l2.092-2.311L34.767 23h2.21L33.883 19.413zM29.728 21.516h-4.011v-1.381h3.838v-1.323h-3.838v-1.308l4.234.012 1.693 1.897L29.728 21.516z"/></svg>