<svg width="64" height="48" viewBox="0 0 64 48" fill="none" xmlns="http://www.w3.org/2000/svg">
<rect x="0.5" y="7.5" width="63" height="39" rx="3.5" fill="white" stroke="#E8E8E8"/>
<path d="M32.976 32.6L32.04 38H26.712L29.688 21.008H37.128C38.952 21.008 40.336 21.416 41.28 22.232C42.224 23.048 42.696 24.168 42.696 25.592C42.696 25.944 42.656 26.36 42.576 26.84C42.384 27.912 41.96 28.888 41.304 29.768C40.664 30.632 39.808 31.32 38.736 31.832C37.68 32.344 36.464 32.6 35.088 32.6H32.976ZM35.232 28.4C36.336 28.4 36.984 27.88 37.176 26.84C37.192 26.744 37.2 26.616 37.2 26.456C37.2 25.672 36.728 25.28 35.784 25.28H34.272L33.72 28.4H35.232Z" fill="#27A3FD"/>
<path d="M28.723 29.925L27.67 36H21.676L25.024 16.884H33.394C35.446 16.884 37.003 17.343 38.065 18.261C39.127 19.179 39.658 20.439 39.658 22.041C39.658 22.437 39.613 22.905 39.523 23.445C39.307 24.651 38.83 25.749 38.092 26.739C37.372 27.711 36.409 28.485 35.203 29.061C34.015 29.637 32.647 29.925 31.099 29.925H28.723ZM31.261 25.2C32.503 25.2 33.232 24.615 33.448 23.445C33.466 23.337 33.475 23.193 33.475 23.013C33.475 22.131 32.944 21.69 31.882 21.69H30.181L29.56 25.2H31.261Z" fill="#0A54AA"/>
<path d="M34.408 20.912L33.496 26H28.216L29.128 20.912H34.408Z" fill="#0A54AA"/>
</svg>
