<svg width="64" height="40" viewBox="0 0 64 40" fill="none" xmlns="http://www.w3.org/2000/svg">
<rect width="64" height="40" rx="4" fill="#5D59FF"/>
<path d="M15.72 22.664V20.264H19.92C20.496 20.264 21 20.152 21.432 19.928C21.88 19.688 22.232 19.36 22.488 18.944C22.744 18.512 22.872 18.008 22.872 17.432C22.872 16.856 22.744 16.36 22.488 15.944C22.232 15.512 21.88 15.184 21.432 14.96C21 14.72 20.496 14.6 19.92 14.6H15.72V12.2H20.064C21.12 12.2 22.064 12.416 22.896 12.848C23.744 13.28 24.408 13.888 24.888 14.672C25.384 15.456 25.632 16.376 25.632 17.432C25.632 18.488 25.384 19.408 24.888 20.192C24.408 20.976 23.744 21.584 22.896 22.016C22.064 22.448 21.12 22.664 20.064 22.664H15.72ZM13.824 29V12.2H16.584V29H13.824ZM32.2099 29.24C31.1699 29.24 30.2259 28.976 29.3779 28.448C28.5459 27.92 27.8819 27.208 27.3859 26.312C26.9059 25.4 26.6659 24.384 26.6659 23.264C26.6659 22.128 26.9059 21.112 27.3859 20.216C27.8819 19.304 28.5459 18.584 29.3779 18.056C30.2259 17.512 31.1699 17.24 32.2099 17.24C33.0899 17.24 33.8659 17.432 34.5379 17.816C35.2259 18.184 35.7699 18.696 36.1699 19.352C36.5699 20.008 36.7699 20.752 36.7699 21.584V24.896C36.7699 25.728 36.5699 26.472 36.1699 27.128C35.7859 27.784 35.2499 28.304 34.5619 28.688C33.8739 29.056 33.0899 29.24 32.2099 29.24ZM32.6419 26.744C33.6179 26.744 34.4019 26.416 34.9939 25.76C35.6019 25.104 35.9059 24.264 35.9059 23.24C35.9059 22.552 35.7699 21.944 35.4979 21.416C35.2259 20.888 34.8419 20.48 34.3459 20.192C33.8659 19.888 33.2979 19.736 32.6419 19.736C32.0019 19.736 31.4339 19.888 30.9379 20.192C30.4579 20.48 30.0739 20.888 29.7859 21.416C29.5139 21.944 29.3779 22.552 29.3779 23.24C29.3779 23.928 29.5139 24.536 29.7859 25.064C30.0739 25.592 30.4579 26.008 30.9379 26.312C31.4339 26.6 32.0019 26.744 32.6419 26.744ZM35.7379 29V25.904L36.1939 23.096L35.7379 20.312V17.48H38.3779V29H35.7379ZM45.0278 29.12L40.1078 17.48H43.0117L46.3718 26.024H45.5318L49.0838 17.48H52.0118L46.6598 29.12H45.0278ZM41.5958 33.8L45.1718 26.432L46.6598 29.12L44.5238 33.8H41.5958Z" fill="white"/>
</svg>
