<svg width="25" height="24" viewBox="0 0 25 24" fill="none" xmlns="http://www.w3.org/2000/svg">
<path d="M15.2523 6.64357H14.3686V5.3685C14.3685 2.40813 11.9602 0 8.99991 0C6.03966 0 3.63119 2.40847 3.63119 5.3685V6.64357H2.74748C1.31064 6.64357 0.141602 7.81261 0.141602 9.24944V21.3941C0.141602 22.8313 1.31064 24 2.74748 24H15.2522C16.6891 24 17.8581 22.8312 17.8581 21.3941V9.24944C17.8581 7.81261 16.6891 6.64357 15.2523 6.64357ZM5.33124 5.3685C5.33124 3.34569 6.97688 1.70005 8.99991 1.70005C11.0227 1.70005 12.6684 3.34569 12.6684 5.3685V6.64357H5.33124V5.3685ZM16.1582 21.3941C16.1582 21.894 15.7516 22.2999 15.2523 22.2999H2.74737C2.24787 22.2999 1.84154 21.8936 1.84154 21.3941V9.24944C1.84154 8.74994 2.24787 8.34361 2.74737 8.34361H3.63108V9.53567C3.35792 9.77363 3.18174 10.1202 3.18174 10.5112C3.18174 11.2289 3.76346 11.8109 4.48116 11.8109C5.19862 11.8109 5.78058 11.2289 5.78058 10.5112C5.78058 10.1205 5.60428 9.77397 5.33124 9.53567V8.34361H12.6684V9.53567C12.3952 9.77363 12.219 10.1202 12.219 10.5112C12.219 11.2289 12.8007 11.8109 13.5184 11.8109C14.2361 11.8109 14.8179 11.2289 14.8179 10.5112C14.8179 10.1205 14.6416 9.77363 14.3685 9.53567V8.34361H15.2522C15.7517 8.34361 16.1581 8.74994 16.1581 9.24944V21.3941H16.1582Z" fill="#454545"/>
<circle cx="18" cy="8" r="7" fill="#F6623E"/>
<path d="M15.4 8.5C15.4 7.8 15.51 7.18 15.73 6.64C15.95 6.1 16.2533 5.67667 16.64 5.37C17.0333 5.05667 17.4867 4.9 18 4.9C18.5133 4.9 18.9633 5.05667 19.35 5.37C19.7433 5.67667 20.05 6.1 20.27 6.64C20.49 7.18 20.6 7.8 20.6 8.5C20.6 9.2 20.49 9.82 20.27 10.36C20.05 10.9 19.7433 11.3267 19.35 11.64C18.9633 11.9467 18.5133 12.1 18 12.1C17.4867 12.1 17.0333 11.9467 16.64 11.64C16.2533 11.3267 15.95 10.9 15.73 10.36C15.51 9.82 15.4 9.2 15.4 8.5ZM16.25 8.5C16.25 9.04 16.32 9.52333 16.46 9.95C16.6067 10.37 16.81 10.7 17.07 10.94C17.33 11.18 17.64 11.3 18 11.3C18.36 11.3 18.67 11.18 18.93 10.94C19.1967 10.7 19.4 10.37 19.54 9.95C19.68 9.52333 19.75 9.04 19.75 8.5C19.75 7.95333 19.68 7.47 19.54 7.05C19.4 6.63 19.1967 6.3 18.93 6.06C18.67 5.82 18.36 5.7 18 5.7C17.64 5.7 17.33 5.82 17.07 6.06C16.81 6.3 16.6067 6.63 16.46 7.05C16.32 7.47 16.25 7.95333 16.25 8.5Z" fill="white"/>
</svg>
